#N canvas 522 50 1707 923 12;
#X obj 33 25 tgl 60 0 empty empty empty 17 7 0 10 -262144 -1 -1 1 1
;
#X msg 33 90 \; pd dsp \$1;
#X text 15 3 Turn ON/OFF DSP;
#X obj 160 26 tgl 60 0 empty empty empty 17 7 0 10 -262144 -1 -1 1
1;
#X text 142 3 TURN ON AUDIO;
#X obj 31 164 catch~ OUTPUT;
#X obj 113 376 dac~;
#X floatatom 153 288 5 0 0 0 - - -;
#X obj 114 337 *~;
#X text 152 143 VOLUME CONTROL;
#X floatatom 154 222 5 0 0 0 - - -;
#X obj 154 253 / 100;
#X text 194 223 <- Adjust this number;
#X obj 31 239 lop~ 100;
#X obj 32 202 hip~ 400;
#X obj 550 24 r ON_MAIN;
#X obj 154 164 r ON_MAIN;
#X obj 159 101 s ON_MAIN;
#X obj 770 260 bng 15 250 50 0 empty empty empty 17 7 0 10 -262144
-1 -1;
#X obj 772 492 mtof;
#X msg 823 376 69;
#X floatatom 772 526 5 0 0 0 - - -;
#X obj 771 569 phasor~;
#X obj 857 569 osc~;
#X obj 808 769 *~;
#X obj 810 853 throw~ OUTPUT;
#X obj 772 434 makenote 50 500;
#X floatatom 772 463 5 0 0 0 - - -;
#X obj 809 814 *~;
#X obj 551 172 metro;
#X obj 551 204 bng 15 250 50 0 empty empty empty 17 7 0 10 -262144
-1 -1;
#X obj 551 227 tgl 15 0 empty empty empty 17 7 0 10 -262144 -1 -1 1
1;
#X msg 461 154 0;
#X obj 554 124 hsl 128 15 0 1000 0 0 empty empty empty -2 -8 0 10 -262144
-1 -1 5300 1;
#X msg 551 94 500;
#X msg 857 376 70;
#X msg 894 376 71;
#X msg 154 196 200;
#X floatatom 769 139 5 0 0 0 - - -;
#X obj 769 170 / 2;
#X floatatom 769 202 5 0 0 0 - - -;
#X obj 770 233 metro;
#X msg 786 376 68;
#X msg 749 376 67;
#X msg 715 376 66;
#X obj 772 328 sel 0 1 2 3 4 5;
#X obj 772 286 random 6;
#X obj 550 60 sel 0 1;
#X connect 0 0 1 0;
#X connect 3 0 17 0;
#X connect 5 0 14 0;
#X connect 7 0 8 1;
#X connect 8 0 6 0;
#X connect 8 0 6 1;
#X connect 10 0 11 0;
#X connect 11 0 7 0;
#X connect 13 0 8 0;
#X connect 14 0 13 0;
#X connect 15 0 47 0;
#X connect 16 0 37 0;
#X connect 18 0 46 0;
#X connect 19 0 21 0;
#X connect 20 0 26 0;
#X connect 21 0 22 0;
#X connect 21 0 23 0;
#X connect 22 0 24 0;
#X connect 23 0 24 1;
#X connect 24 0 28 0;
#X connect 26 0 27 0;
#X connect 27 0 19 0;
#X connect 28 0 25 0;
#X connect 29 0 30 0;
#X connect 30 0 31 0;
#X connect 31 0 28 1;
#X connect 32 0 29 0;
#X connect 32 0 31 0;
#X connect 32 0 28 1;
#X connect 32 0 41 0;
#X connect 33 0 29 0;
#X connect 33 0 29 1;
#X connect 33 0 38 0;
#X connect 34 0 33 0;
#X connect 35 0 26 0;
#X connect 36 0 26 0;
#X connect 37 0 10 0;
#X connect 38 0 39 0;
#X connect 39 0 40 0;
#X connect 40 0 41 0;
#X connect 40 0 41 1;
#X connect 41 0 18 0;
#X connect 42 0 26 0;
#X connect 43 0 26 0;
#X connect 44 0 26 0;
#X connect 45 0 44 0;
#X connect 45 1 43 0;
#X connect 45 2 42 0;
#X connect 45 3 20 0;
#X connect 45 4 35 0;
#X connect 45 5 36 0;
#X connect 46 0 45 0;
#X connect 47 0 32 0;
#X connect 47 1 34 0;
