#N canvas 1113 129 482 228 12;
#X obj 279 45 tgl 15 0 empty empty empty 17 7 0 10 -262144 -1 -1 1
1;
#X msg 279 74 \; pd dsp \$1;
#X text 277 23 Turn DSP On/Off;
#N canvas 583 166 561 511 gunMaster 1;
#X obj 136 75 inlet;
#X obj 132 269 outlet~;
#X obj 136 103 bng 15 250 50 0 empty empty empty 17 7 0 10 -262144
-1 -1;
#X obj 132 212 +~;
#N canvas 1079 314 606 549 gunSoundLow 1;
#X obj 41 64 inlet;
#X obj 45 411 outlet~;
#X obj 44 381 *~;
#N canvas 0 50 450 250 (subpatch) 0;
#X array array1 100 float 5;
#A 0 0 0 0 0 0 0 0 0 0 0 0 0 0 0 0 0 0 0 0 0 0 0 0 0 0 0 0 0 0 0 0
0 0 0 0 0 0 0 0 0 0 0 0 0 0 0 0 0 0 0 0 0 0 0 0 0 0 0 0 0 0 0 0 0 0
0 0 0 0 0 0 0 0 0 0 0 0 0 0 0 0 0 0 0 0 0 0 0 0 0 0 0 0 0 0 0 0 0 0
0;
#X coords 0 1 100 -1 200 140 1;
#X restore 351 64 graph;
#X obj 104 411 tabwrite~ array1;
#X obj 103 380 metro 100;
#X obj 151 302 line;
#X floatatom 151 327 5 0 0 0 - - -;
#X obj 136 203 1 10;
#X obj 201 231 0 300;
#X obj 201 169 delay 10;
#X obj 15 202 noise~;
#X obj 40 279 lop~;
#X floatatom 78 252 5 0 0 0 - - -;
#X obj 271 299 phasor~;
#X obj 46 326 +~;
#X floatatom 269 259 5 0 0 0 - - -;
#X msg 76 215 182;
#X msg 283 80 71, f 2;
#X obj 269 141 +;
#X msg 187 83 seed 45;
#X obj 189 113 random 20;
#X obj 45 353 +~;
#X connect 0 0 8 0;
#X connect 0 0 10 0;
#X connect 0 0 17 0;
#X connect 0 0 18 0;
#X connect 0 0 21 0;
#X connect 2 0 1 0;
#X connect 2 0 4 0;
#X connect 5 0 4 0;
#X connect 6 0 7 0;
#X connect 7 0 2 1;
#X connect 8 0 6 0;
#X connect 9 0 6 0;
#X connect 10 0 9 0;
#X connect 11 0 12 0;
#X connect 12 0 15 0;
#X connect 13 0 12 1;
#X connect 14 0 15 1;
#X connect 15 0 22 0;
#X connect 16 0 14 0;
#X connect 17 0 13 0;
#X connect 18 0 19 1;
#X connect 19 0 16 0;
#X connect 20 0 21 0;
#X connect 21 0 19 0;
#X connect 22 0 2 0;
#X restore 136 136 pd gunSoundLow;
#X connect 0 0 2 0;
#X connect 2 0 4 0;
#X connect 3 0 1 0;
#X connect 4 0 3 1;
#X restore 57 68 pd gunMaster;
#X obj 58 126 *~;
#X obj 105 99 hsl 128 15 0 1 0 0 empty empty empty -2 -8 0 10 -262144
-1 -1 12700 1;
#X obj 59 160 dac~;
#X text 57 14 Activate Gun Sound;
#X obj 57 38 bng 15 250 50 0 empty empty empty 17 7 0 10 -262144 -1
-1;
#X text 92 117 Off;
#X text 215 115 FULL;
#X msg 177 65 1;
#X obj 178 41 loadbang;
#X text 6 0 Nicholas Pastoria;
#X connect 0 0 1 0;
#X connect 3 0 4 0;
#X connect 4 0 6 0;
#X connect 4 0 6 1;
#X connect 5 0 4 1;
#X connect 8 0 3 0;
#X connect 11 0 5 0;
#X connect 12 0 11 0;
