#N canvas 537 288 679 486 12;
#X obj 64 3 inlet;
#X obj 48 93 mtof;
#X obj 107 370 outlet~;
#X obj 106 311 *~;
#X obj 68 31 unpack i i;
#N canvas 26 26 450 300 envolope 1;
#X obj 57 35 sel 0;
#X msg 60 92 0, f 4;
#X obj 187 118 / 127;
#X obj 187 142 pack 0 400;
#X floatatom 254 112 5 0 0 0 - - - 0;
#X floatatom 134 115 5 0 0 0 - - - 0;
#X obj 114 209 line~;
#X obj 114 233 *~;
#X obj 62 138 pack 0 2000;
#X obj 56 10 inlet;
#X obj 114 257 outlet~;
#X connect 0 0 1 0;
#X connect 0 1 2 0;
#X connect 1 0 8 0;
#X connect 2 0 3 0;
#X connect 3 0 6 0;
#X connect 4 0 3 1;
#X connect 5 0 8 1;
#X connect 6 0 7 0;
#X connect 6 0 7 1;
#X connect 7 0 10 0;
#X connect 8 0 6 0;
#X connect 9 0 0 0;
#X restore 379 184 pd envolope;
#X obj 106 335 lop~ 5000;
#X obj 145 121 * 1.004;
#N canvas 683 526 449 300 ZombieHelper 1;
#X obj 119 224 phasor~;
#X floatatom 51 97 5 0 0 0 - - - 0;
#X obj 119 248 expr~ $v1 > $v2;
#X obj 230 168 osc~ 2.1;
#X obj 230 192 *~ 0.4;
#X obj 230 216 +~ 0.5;
#X obj 56 127 sig~;
#X obj 103 162 +~;
#X obj 148 102 osc~ 5;
#X obj 148 126 *~ 3;
#X obj 53 66 inlet;
#X obj 119 272 outlet~;
#X obj 267 117 + 1;
#X obj 149 76 + 1;
#X obj 267 69 random 1000;
#X obj 149 28 random 1000;
#X obj 149 52 * 0.005;
#X obj 267 93 * 0.002;
#X obj 267 45 loadbang;
#X obj 151 4 loadbang;
#X connect 0 0 2 0;
#X connect 1 0 6 0;
#X connect 2 0 11 0;
#X connect 3 0 4 0;
#X connect 4 0 5 0;
#X connect 5 0 2 1;
#X connect 6 0 7 0;
#X connect 7 0 0 0;
#X connect 8 0 9 0;
#X connect 9 0 7 1;
#X connect 10 0 1 0;
#X connect 12 0 3 0;
#X connect 13 0 8 0;
#X connect 14 0 17 0;
#X connect 15 0 16 0;
#X connect 16 0 13 0;
#X connect 17 0 12 0;
#X connect 18 0 14 0;
#X connect 19 0 15 0;
#X restore 30 161 pd ZombieHelper;
#N canvas 683 526 449 300 ZombieHelper 1;
#X obj 119 224 phasor~;
#X floatatom 51 97 5 0 0 0 - - - 0;
#X obj 119 248 expr~ $v1 > $v2;
#X obj 230 168 osc~ 2.1;
#X obj 230 192 *~ 0.4;
#X obj 230 216 +~ 0.5;
#X obj 56 127 sig~;
#X obj 103 162 +~;
#X obj 148 102 osc~ 5;
#X obj 148 126 *~ 3;
#X obj 53 66 inlet;
#X obj 119 272 outlet~;
#X obj 267 117 + 1;
#X obj 149 76 + 1;
#X obj 267 69 random 1000;
#X obj 149 28 random 1000;
#X obj 149 52 * 0.005;
#X obj 267 93 * 0.002;
#X obj 267 45 loadbang;
#X obj 151 4 loadbang;
#X connect 0 0 2 0;
#X connect 1 0 6 0;
#X connect 2 0 11 0;
#X connect 3 0 4 0;
#X connect 4 0 5 0;
#X connect 5 0 2 1;
#X connect 6 0 7 0;
#X connect 7 0 0 0;
#X connect 8 0 9 0;
#X connect 9 0 7 1;
#X connect 10 0 1 0;
#X connect 12 0 3 0;
#X connect 13 0 8 0;
#X connect 14 0 17 0;
#X connect 15 0 16 0;
#X connect 16 0 13 0;
#X connect 17 0 12 0;
#X connect 18 0 14 0;
#X connect 19 0 15 0;
#X restore 156 159 pd ZombieHelper;
#X obj 2 196 * 10;
#X connect 0 0 4 0;
#X connect 1 0 8 0;
#X connect 1 0 10 0;
#X connect 1 0 7 0;
#X connect 3 0 6 0;
#X connect 4 0 1 0;
#X connect 4 1 5 0;
#X connect 5 0 3 1;
#X connect 6 0 2 0;
#X connect 7 0 9 0;
#X connect 8 0 3 0;
#X connect 9 0 3 0;
#X connect 10 0 6 1;
