#N canvas 601 33 794 487 12;
#X msg 318 58 \; pd dsp \$1;
#X obj 33 178 dac~;
#N canvas 182 182 605 503 ZombieMaster 1;
#X obj 143 329 -1;
#X obj 143 353 pack 0 0 0;
#X obj 147 263 pack 0 0;
#X floatatom 127 193 6 0 0 0 - - - 0;
#X obj 145 385 clone zombiesyth.cl 2;
#X obj 143 305 poly 2 1;
#X obj 163 116 metro 800;
#X obj 79 143 random 10;
#X obj 82 167 + 26;
#X obj 135 231 makenote 100 400;
#X obj 251 179 + 50;
#X obj 248 155 random 10;
#X obj 164 63 inlet;
#X obj 143 424 outlet~;
#X connect 0 0 1 0;
#X connect 1 0 4 0;
#X connect 2 0 5 0;
#X connect 3 0 9 0;
#X connect 4 0 13 0;
#X connect 5 0 0 0;
#X connect 5 1 1 1;
#X connect 5 2 1 2;
#X connect 6 0 7 0;
#X connect 6 0 11 0;
#X connect 7 0 8 0;
#X connect 8 0 3 0;
#X connect 9 0 2 0;
#X connect 9 1 2 1;
#X connect 10 0 9 1;
#X connect 11 0 10 0;
#X connect 12 0 6 0;
#X restore 34 84 pd ZombieMaster;
#X obj 34 52 tgl 15 0 empty empty empty 17 7 0 10 #fcfcfc #000000 #000000
0 1;
#X text 17 9 Turn ON/OFF Zombie Sound;
#X text 314 8 Turn DSP On/Off;
#X obj 318 34 tgl 15 0 empty empty empty 17 7 0 10 #fcfcfc #000000
#000000 0 1;
#X obj 35 149 *~;
#X obj 100 114 hsl 128 15 0 1 0 0 empty empty empty -2 -8 0 10 #fcfcfc
#000000 #000000 0 1;
#X text 103 129 Volume Slider: Left is OFF Right is FULL;
#N canvas 718 260 450 300 oscSend 1;
#X msg 158 207 disconnect;
#X obj 61 253 netsend -u -b;
#X obj 59 55 list prepend send;
#X obj 59 80 list trim;
#X obj 59 29 r oscOut;
#X obj 147 108 loadbang;
#X text 301 163 send to port 9001;
#X msg 147 148 connect localhost 8001;
#X msg 150 175 connect 127.0.0.1 8001;
#X connect 0 0 1 0;
#X connect 2 0 3 0;
#X connect 3 0 1 0;
#X connect 4 0 2 0;
#X connect 5 0 7 0;
#X connect 7 0 1 0;
#X connect 8 0 1 0;
#X restore 565 18 pd oscSend;
#N canvas 591 156 494 445 oscReceive 0;
#X obj 55 184 netreceive -u -b;
#X msg 78 143 listen 0;
#X text 152 143 stop listening;
#X text 64 58 packets from network;
#X text 173 177 UDP packets \, binary output, f 13;
#X obj 45 314 print;
#X obj 45 272 oscparse;
#X obj 177 269 oscparse;
#X obj 177 293 list trim;
#X floatatom 177 363 5 0 0 0 - - - 0;
#X text 241 267 Parse the OSC message;
#X obj 177 319 route unity;
#X obj 176 340 route trigger;
#X obj 177 390 s osctrig;
#X obj 66 84 loadbang;
#X msg 66 115 listen 8000;
#X text 150 114 listen on port 8000;
#X connect 0 0 6 0;
#X connect 0 0 7 0;
#X connect 1 0 0 0;
#X connect 6 0 5 0;
#X connect 7 0 8 0;
#X connect 8 0 11 0;
#X connect 9 0 13 0;
#X connect 11 0 12 0;
#X connect 12 0 9 0;
#X connect 14 0 15 0;
#X connect 15 0 0 0;
#X restore 565 48 pd oscReceive;
#X connect 2 0 7 0;
#X connect 3 0 2 0;
#X connect 6 0 0 0;
#X connect 7 0 1 0;
#X connect 7 0 1 1;
#X connect 8 0 7 1;
